<?xml version="1.0" standalone="yes"?>
<svg xmlns="http://www.w3.org/2000/svg" width="456" height="456">
<path style="fill:#896f9b; stroke:none;" d="M0 0L0 456L456 456L456 0L0 0z"/>
<path style="fill:#615269; stroke:none;" d="M82 33L82 40L83 40L84 33L82 33M219 33L220 39L221 39L221 33L219 33z"/>
<path style="fill:#212020; stroke:none;" d="M83 34L78.2284 72.9962L88 91C82.5111 91.98 78.1285 98.558 78 104L68 122L75 118C73.1958 125.588 66.5019 130.646 59 132L59 133L70 135L70 136L66 137L87 141L87 142L85 144C95.488 143.55 105.363 140.031 116 141.174C148.573 144.673 151.057 183.733 140.663 208C137.064 216.403 130.27 222.785 126.519 231C123.46 237.698 122.151 245.685 122 253L123 253L124 251L127 266L128 266L127 258L128 258L130 265L131 265L131 260C162.417 290.685 188.522 337.274 169.768 382C167.325 387.826 164.197 396.612 159.443 400.896C151.652 407.916 134.527 407.758 137 421L138 419L139 419L138 423L147 423L147 417L148 417L148 423L173 423L173 417L174 417L174 422C192.598 427.497 218.571 423 238 423C244.989 423 256.181 425.725 258 417C294.764 417 332.951 409.62 359.83 381.91C372.496 368.853 380.858 352.651 387.604 336C392.198 324.662 397.74 314.578 398 302L397 302L392 314L391 314L394 288L393 288L391 298L390 298C389.116 286.816 387.829 279.812 392 269L385 277C384.191 267.794 378.492 258.449 373.279 251C356.486 227.009 318.708 195.713 289.015 217.927C273.099 229.834 273.342 257.864 271 276L272 276L276 265L285 293L286 293L286 283L309 294L309 293L307 293L307 292L321 292L321 291L307 287L330 276L330 275L321 278L336 263L332 263L343 248L320 255L319 247L318 247C317.203 253.168 315.722 257.764 311 262L311 255L310 255C308.27 261.325 303.303 276.364 295 276.364C280.193 276.364 282.37 247.226 285.966 239C292.677 223.649 310.55 220.493 325 225.356C347.152 232.811 369.467 254.322 376 277L360 265C362.794 272.263 368.751 277.839 371.907 285C381.085 305.827 382.582 337.952 365 355L365 348L364 348C362.361 355.941 360.391 363.575 354 369L355 359L354 359C347.414 375.975 335.653 386.916 318 392L321 385L303 398L308 390C299.217 393.909 286.701 407.194 276.144 399.261C269.108 393.973 274.065 376.706 273.155 369C271.566 355.537 268.773 342.66 261.532 331C255.353 321.05 246.703 313.664 241.245 303C236.344 293.426 226.648 273.471 218 292L216 292L202.94 265L199 232L200 232L200 235L201 235L204 232L201 222L199 223C197.961 217.242 194.572 212.365 190.7 208.039C184.042 200.601 175.608 195.3 169.785 187C160.184 173.311 159.707 149.543 178 143.356C182.989 141.669 187.753 141 193 141C201.828 141 210.225 143.819 219 144L219 143L217 140L237 138L237 136L233 136L233 135L245 133L245 132C236.986 130.571 231.236 125.357 228 118L237 123L225 103C224.582 98.4571 222.051 95.9305 218 94L216.137 84.0548L224.891 72.9962L220 35L219 35C214.686 46.7823 204.118 53.7983 196.209 63C193.696 65.9245 191.251 72.0248 186.91 72.4684C178.153 73.3632 167.995 61.3863 164 55L163 55L165 66L159 58L158 58L158 61L151 55C149.143 57.9166 147.842 61.3061 145 58L139 66L141 55L140 55C135.686 61.3162 125.934 73.3353 117.015 72.4684C112.014 71.9824 109.722 65.314 106.79 62.0394C98.2646 52.5183 90.3304 44.5723 83 34M220 34L221 35L220 34z"/>
<path style="fill:#615269; stroke:none;" d="M84.3333 35.6667L84.6667 36.3333L84.3333 35.6667M218.333 36.6667L218.667 37.3333L218.333 36.6667M85 38L86 39L85 38M216 40L217 41L216 40M87 41L88 42L87 41M221 41L222 42L221 41M81.3333 42.6667L81.6667 43.3333L81.3333 42.6667M215 42L216 43L215 42M88 43L89 44L88 43M214 43L215 44L214 43M89 44L90 45L89 44M222.333 44.6667L222.667 45.3333L222.333 44.6667M213 45L214 46L213 45M80.3333 46.6667L80.6667 47.3333L80.3333 46.6667M212 46L213 47L212 46M211 47L212 48L211 47M92 48L93 49L92 48M210 48L211 49L210 48M93 49L94 50L93 49M209 49L210 50L209 49M223.333 49.6667L223.667 50.3333L223.333 49.6667M79 50L79 53L80 53L79 50M94 50L95 51L94 50M95 51L96 52L95 51M96 52L97 53L96 52M97 53L98 54L97 53M224 53L224 56L225 56L224 53M98 54L99 55L98 54M140 54L141 55L140 54M151 54L152 55L151 54M162.333 54.6667L162.667 55.3333L162.333 54.6667M99 55L100 56L99 55M139 55L140 56L139 55M150 55L151 56L150 55M152 55L153 56L152 55M203 55L204 56L203 55M78 56L78 60L79 60L78 56M100 56L101 57L100 56M140 56L140 59L141 59L140 56M153 56L154 57L153 56M164 56L165 57L164 56M202 56L203 57L202 56M101 57L102 58L101 57M138 57L139 58L138 57M145 57L146 58L145 57M149 57L150 58L149 57M158 57L159 58L158 57M165 57L166 58L165 57M201 57L202 58L201 57M137 58L138 59L137 58M144 58L145 59L144 58M154 58L155 59L154 58M163.333 58.6667L163.667 59.3333L163.333 58.6667M200 58L201 59L200 58M148 59L149 60L148 59M155 59L156 60L155 59M157 59L156 61L158 61L157 59M159 59L160 60L159 59M199 59L200 60L199 59M105 60L106 61L105 60M136 60L137 61L136 60M139.333 60.6667L139.667 61.3333L139.333 60.6667M143.333 60.6667L143.667 61.3333L143.333 60.6667M146 60L147 61L146 60M167 60L168 61L167 60M198 60L199 61L198 60M225 60L225 74L226 74L225 60M106 61L107 62L106 61M135 61L136 62L135 61M160 61L161 62L160 61M168 61L169 62L168 61M197 61L198 62L197 61M107 62L108 63L107 62M134 62L135 63L134 62M142.333 62.6667L142.667 63.3333L142.333 62.6667M164 62L164 66L165 66L164 62M196 62L197 63L196 62M108 63L109 64L108 63M133 63L134 64L133 63M161 63L162 64L161 63M195 63L196 64L195 63M132 64L133 65L132 64M141 64L142 65L141 64M171 64L172 65L171 64M194 64L195 65L194 64M109 65L110 66L109 65M131 65L132 66L131 65M140 65L141 66L140 65M172 65L173 66L172 65M129 66L130 67L129 66M173 66L174 67L173 66M193 66L194 67L193 66M110 67L111 68L110 67M127.667 67.3333L128.333 67.6667L127.667 67.3333M175 67L176 68L175 67M111 68L112 69L111 68M126 68L127 69L126 68M177 68L178 69L177 68M192 68L193 69L192 68M124 69L125 70L124 69M179 69L180 70L179 69M191 69L192 70L191 69M112 70L113 71L112 70M122.667 70.3333L123.333 70.6667L122.667 70.3333M180.667 70.3333L181.333 70.6667L180.667 70.3333M190 70L191 71L190 70M113 71L114 72L113 71M120.667 71.3333L121.333 71.6667L120.667 71.3333M182.667 71.3333L183.333 71.6667L182.667 71.3333M118.667 72.3333L119.333 72.6667L118.667 72.3333M184.667 72.3333L185.333 72.6667L184.667 72.3333M189 72L190 73L189 72M78 75L79 76L78 75M224 76L225 77L224 76M79 77L80 78L79 77M80 78L81 79L80 78M223 78L224 79L223 78M82 79L83 80L82 79M221 79L222 80L221 79M218 80L219 81L218 80M86 81L87 82L86 81M87 82L88 83L87 82M216 82L217 83L216 82M215 83L216 84L215 83M88.3333 84.6667L88.6667 85.3333L88.3333 84.6667M215 85L215 88L216 88L215 85M87 87L87 91L88 91L87 87M100 88L100 91L101 91L100 88z"/>
<path style="fill:#e0a958; stroke:none;" d="M100 89L102 91L102 89L100 89z"/>
<path style="fill:#896f9b; stroke:none;" d="M102 89L103 90L102 89z"/>
<path style="fill:#615269; stroke:none;" d="M103 89L104 90L103 89M200 89L201 90L200 89z"/>
<path style="fill:#896f9b; stroke:none;" d="M201 89L203 91L201 89z"/>
<path style="fill:#e0a958; stroke:none;" d="M202.667 89.3333L203.333 89.6667L202.667 89.3333z"/>
<path style="fill:#615269; stroke:none;" d="M216 89L217 90L216 89M85 90L86 91L85 90z"/>
<path style="fill:#fee46c; stroke:none;" d="M102 90L102 91C112.248 96.9881 119.813 107.222 131 111.305C135.598 112.983 142.796 116.867 144 110C134.153 110.236 127.792 101.95 120 96.9498C114.551 93.4536 108.102 91.9848 102 90z"/>
<path style="fill:#e0a958; stroke:none;" d="M103.667 90.3333L104.333 90.6667L103.667 90.3333z"/>
<path style="fill:#896f9b; stroke:none;" d="M105 90L106 91L105 90z"/>
<path style="fill:#615269; stroke:none;" d="M106 90L107 91L106 90M197 90L198 91L197 90z"/>
<path style="fill:#896f9b; stroke:none;" d="M198 90L199 91L198 90z"/>
<path style="fill:#e0a958; stroke:none;" d="M160 107L159 107L159 111C173.659 110.005 182.051 91.2082 197 94L196 92L199 93L202 91C194.139 88.6129 180.696 94.4751 175.285 100.093C171.208 104.328 165.999 112.254 160 107z"/>
<path style="fill:#615269; stroke:none;" d="M217 90L218 91L217 90M84 91L85 92L84 91M86 91L82 97L86 91z"/>
<path style="fill:#896f9b; stroke:none;" d="M102 91L103 92L102 91z"/>
<path style="fill:#e0a958; stroke:none;" d="M106 91L106 92C117.371 94.3771 124.71 101.648 134 108C126.702 97.3262 118.661 92.7049 106 91z"/>
<path style="fill:#615269; stroke:none;" d="M109.667 91.3333L110.333 91.6667L109.667 91.3333M193 91L194 92L193 91z"/>
<path style="fill:#896f9b; stroke:none;" d="M194 91L195 92L194 91z"/>
<path style="fill:#fee46c; stroke:none;" d="M199 91L200 92L199 91z"/>
<path style="fill:#615269; stroke:none;" d="M201 91L202 92L201 91M218 91L219 92L218 91M103 92L104 93L103 92z"/>
<path style="fill:#896f9b; stroke:none;" d="M104 92L105 93L104 92M113 92L114 93L113 92z"/>
<path style="fill:#615269; stroke:none;" d="M114.667 92.3333L115.333 92.6667L114.667 92.3333M188 92L189 93L188 92z"/>
<path style="fill:#896f9b; stroke:none;" d="M189 92L190 93L189 92z"/>
<path style="fill:#fee46c; stroke:none;" d="M196.667 92.3333L197.333 92.6667L196.667 92.3333z"/>
<path style="fill:#615269; stroke:none;" d="M199 92L200 93L199 92M217 92L218 93L217 92M105 93L106 94L105 93z"/>
<path style="fill:#896f9b; stroke:none;" d="M106 93L107 94L106 93z"/>
<path style="fill:#615269; stroke:none;" d="M118.667 93.3333L119.333 93.6667L118.667 93.3333M184 93L185 94L184 93z"/>
<path style="fill:#896f9b; stroke:none;" d="M185 93L186 94L185 93z"/>
<path style="fill:#fee46c; stroke:none;" d="M160 110L160 115C175.524 111.407 182.987 101.522 196 94C181.901 88.5521 173.784 112.565 160 110z"/>
<path style="fill:#615269; stroke:none;" d="M197 93L198 94L197 93M218.667 93.3333L219.333 93.6667L218.667 93.3333M82 94L83 95L82 94M107 94L108 95L107 94z"/>
<path style="fill:#e0a958; stroke:none;" d="M108 94L109 95L108 94z"/>
<path style="fill:#615269; stroke:none;" d="M121 94L122 95L121 94M181 94L182 95L181 94z"/>
<path style="fill:#896f9b; stroke:none;" d="M182 94L183 95L182 94z"/>
<path style="fill:#e0a958; stroke:none;" d="M194 94L195 95L194 94z"/>
<path style="fill:#615269; stroke:none;" d="M195 94L196 95L195 94M220 94L221 95L220 94M81 95L82 96L81 95M109 95L110 96L109 95z"/>
<path style="fill:#e0a958; stroke:none;" d="M110 95L111 96L110 95z"/>
<path style="fill:#615269; stroke:none;" d="M122 95L123 96L122 95M180 95L181 96L180 95M193 95L194 96L193 95M221 95L222 96L221 95M80 96L81 97L80 96z"/>
<path style="fill:#896f9b; stroke:none;" d="M111 96L112 97L111 96M123 96L124 97L123 96M179 96L180 97L179 96z"/>
<path style="fill:#e0a958; stroke:none;" d="M191 96L192 97L191 96z"/>
<path style="fill:#615269; stroke:none;" d="M192 96L193 97L192 96M222 96L223 97L222 96M79.3333 97.6667L79.6667 98.3333L79.3333 97.6667M112 97L113 98L112 97M125 97L126 98L125 97M177 97L178 98L177 97z"/>
<path style="fill:#e0a958; stroke:none;" d="M190 97L191 98L190 97z"/>
<path style="fill:#615269; stroke:none;" d="M223 97L224 98L223 97M113 98L114 99L113 98M126 98L127 99L126 98M176 98L177 99L176 98z"/>
<path style="fill:#896f9b; stroke:none;" d="M189 98L190 99L189 98z"/>
<path style="fill:#615269; stroke:none;" d="M78 99L79 100L78 99M114 99L115 100L114 99M175 99L176 100L175 99z"/>
<path style="fill:#896f9b; stroke:none;" d="M188 99L189 100L188 99z"/>
<path style="fill:#615269; stroke:none;" d="M224 99L225 100L224 99M79 100L80 101L79 100M115 100L116 101L115 100M174 100L175 101L174 100z"/>
<path style="fill:#896f9b; stroke:none;" d="M187 100L188 101L187 100z"/>
<path style="fill:#615269; stroke:none;" d="M225 100L226 101L225 100M77 101L78 102L77 101M116 101L117 102L116 101z"/>
<path style="fill:#e0a958; stroke:none;" d="M186 101L187 102L186 101z"/>
<path style="fill:#615269; stroke:none;" d="M76 102L76 104L78 104L76 102z"/>
<path style="fill:#896f9b; stroke:none;" d="M117 102L118 103L117 102M129 102L130 103L129 102M173 102L174 103L173 102z"/>
<path style="fill:#e0a958; stroke:none;" d="M185 102L186 103L185 102z"/>
<path style="fill:#615269; stroke:none;" d="M225.667 102.333L226.333 102.667L225.667 102.333z"/>
<path style="fill:#896f9b; stroke:none;" d="M118 103L119 104L118 103z"/>
<path style="fill:#615269; stroke:none;" d="M130 103L131 104L130 103M172 103L173 104L172 103z"/>
<path style="fill:#e0a958; stroke:none;" d="M184 103L185 104L184 103z"/>
<path style="fill:#615269; stroke:none;" d="M75.3333 104.667L75.6667 105.333L75.3333 104.667z"/>
<path style="fill:#e0a958; stroke:none;" d="M119 104L120 105L119 104z"/>
<path style="fill:#896f9b; stroke:none;" d="M131 104L132 105L131 104z"/>
<path style="fill:#615269; stroke:none;" d="M171 104L172 105L171 104z"/>
<path style="fill:#e0a958; stroke:none;" d="M183 104L184 105L183 104z"/>
<path style="fill:#615269; stroke:none;" d="M227 104L228 105L227 104z"/>
<path style="fill:#e0a958; stroke:none;" d="M120 105L121 106L120 105z"/>
<path style="fill:#896f9b; stroke:none;" d="M132 105L133 106L132 105z"/>
<path style="fill:#615269; stroke:none;" d="M143 105L144 106L143 105M159 105L160 106L159 105z"/>
<path style="fill:#896f9b; stroke:none;" d="M170 105L171 106L170 105z"/>
<path style="fill:#e0a958; stroke:none;" d="M182 105L183 106L182 105z"/>
<path style="fill:#896f9b; stroke:none;" d="M121 106L122 107L121 106M133 106L134 107L133 106z"/>
<path style="fill:#e0a958; stroke:none;" d="M143 106L142 110L143 106z"/>
<path style="fill:#896f9b; stroke:none;" d="M159 106L160 107L159 106M169 106L170 107L169 106z"/>
<path style="fill:#e0a958; stroke:none;" d="M181 106L182 107L181 106z"/>
<path style="fill:#615269; stroke:none;" d="M228 106L229 107L228 106M74 107L75 108L74 107z"/>
<path style="fill:#896f9b; stroke:none;" d="M122 107L123 108L122 107M134 107L135 108L134 107z"/>
<path style="fill:#615269; stroke:none;" d="M142 107L143 108L142 107z"/>
<path style="fill:#896f9b; stroke:none;" d="M168 107L169 108L168 107z"/>
<path style="fill:#e0a958; stroke:none;" d="M179 107L180 108L179 107z"/>
<path style="fill:#615269; stroke:none;" d="M180 107L181 108L180 107z"/>
<path style="fill:#e0a958; stroke:none;" d="M124 108L125 109L124 108M135 108L136 109L135 108z"/>
<path style="fill:#615269; stroke:none;" d="M136 108L137 109L136 108M158.333 108.667L158.667 109.333L158.333 108.667M166 108L167 109L166 108z"/>
<path style="fill:#e0a958; stroke:none;" d="M178 108L179 109L178 108z"/>
<path style="fill:#615269; stroke:none;" d="M229.333 108.667L229.667 109.333L229.333 108.667M73.3333 109.667L73.6667 110.333L73.3333 109.667M125 109L126 110L125 109z"/>
<path style="fill:#e0a958; stroke:none;" d="M126 109L127 110L126 109z"/>
<path style="fill:#896f9b; stroke:none;" d="M137 109L138 110L137 109M141 109L142 110L141 109z"/>
<path style="fill:#615269; stroke:none;" d="M144.333 109.667L144.667 110.333L144.333 109.667M161 109L162 110L161 109M164 109L165 110L164 109z"/>
<path style="fill:#e0a958; stroke:none;" d="M175.667 109.333L176.333 109.667L175.667 109.333z"/>
<path style="fill:#615269; stroke:none;" d="M177 109L178 110L177 109z"/>
<path style="fill:#e0a958; stroke:none;" d="M128 110L129 111L128 110M139.667 110.333L140.333 110.667L139.667 110.333z"/>
<path style="fill:#896f9b; stroke:none;" d="M158 110L158 113L159 113L158 110z"/>
<path style="fill:#e0a958; stroke:none;" d="M173 110L174 111L173 110z"/>
<path style="fill:#896f9b; stroke:none;" d="M174 110L175 111L174 110z"/>
<path style="fill:#615269; stroke:none;" d="M175 110L176 111L175 110M230.333 110.667L230.667 111.333L230.333 110.667M72.3333 111.667L72.6667 112.333L72.3333 111.667M130 111L131 112L130 111z"/>
<path style="fill:#e0a958; stroke:none;" d="M131 111L132 112L131 111z"/>
<path style="fill:#896f9b; stroke:none;" d="M144 111L145 112L144 111z"/>
<path style="fill:#e0a958; stroke:none;" d="M170.667 111.333L171.333 111.667L170.667 111.333z"/>
<path style="fill:#615269; stroke:none;" d="M172 111L173 112L172 111M133 112L134 113L133 112z"/>
<path style="fill:#e0a958; stroke:none;" d="M134 112L135 113L134 112z"/>
<path style="fill:#615269; stroke:none;" d="M144 112L145 113L144 112z"/>
<path style="fill:#e0a958; stroke:none;" d="M168 112L169 113L168 112z"/>
<path style="fill:#615269; stroke:none;" d="M169 112L170 113L169 112M136 113L137 114L136 113z"/>
<path style="fill:#e0a958; stroke:none;" d="M137 113L138 114L137 113z"/>
<path style="fill:#615269; stroke:none;" d="M158 113L159 114L158 113z"/>
<path style="fill:#896f9b; stroke:none;" d="M165 113L166 114L165 113z"/>
<path style="fill:#615269; stroke:none;" d="M166 113L167 114L166 113M231 113L232 114L231 113M71.3333 114.667L71.6667 115.333L71.3333 114.667z"/>
<path style="fill:#896f9b; stroke:none;" d="M139 114L140 115L139 114z"/>
<path style="fill:#e0a958; stroke:none;" d="M140 114L141 115L140 114M142 114L143 115L142 114z"/>
<path style="fill:#896f9b; stroke:none;" d="M143 114L144 115L143 114z"/>
<path style="fill:#e0a958; stroke:none;" d="M159 114L160 115L159 114M162 114L163 115L162 114z"/>
<path style="fill:#615269; stroke:none;" d="M163 114L164 115L163 114M141 115L142 116L141 115M161 115L162 116L161 115M70.3333 116.667L70.6667 117.333L70.3333 116.667M232 116L233 117L232 116M69 118L70 119L69 118M73 118L74 119L73 118M228.333 118.667L228.667 119.333L228.333 118.667M72 119L73 120L72 119M231 119L232 120L231 119M234 119L235 120L234 119M70 120L71 121L70 120M232 120L233 121L232 120M235 120L236 121L235 120M67 121L65 123L65 124L67 121M69 121L70 122L69 121M74 121L75 122L74 121M229 121L230 122L229 121M234 121L235 122L234 121M236 121L237 122L236 121z"/>
<path style="fill:#212020; stroke:none;" d="M66 122L67 123L66 122z"/>
<path style="fill:#615269; stroke:none;" d="M73 122L74 123L73 122M237 122L237 124L239 124L237 122M230 123L231 124L230 123M72 124L73 125L72 124M231 124L232 125L231 124M71 125L72 126L71 125M232 125L233 126L232 125M70 126L71 127L70 126M233 126L234 127L233 126M69 127L70 128L69 127M234 127L235 128L234 127M67 128L68 129L67 128M235 128L236 129L235 128M66 129L67 130L66 129M237 129L238 130L237 129M64 130L65 131L64 130M239 130L240 131L239 130M61.6667 131.333L62.3333 131.667L61.6667 131.333M241.667 131.333L242.333 131.667L241.667 131.333M57 132L61 134L61 133L57 132M245 132L242 133L242 134L245 132M66.6667 134.333L67.3333 134.667L66.6667 134.333M236.667 134.333L237.333 134.667L236.667 134.333M69 135L70 136L69 135M233.667 135.333L234.333 135.667L233.667 135.333M64 136L65 138L66 138L67 136L64 136M237 138L240 136L237 138M68 138L69 139L68 138M233 138L233 139L236 139L233 138M79 139L79 140L85 140L79 139M219 139L219 140L224 140L219 139M217 140L218 141L217 140M86 141L87 142L86 141M101 141L101 142L107 142L101 141M116 141L116 142L119 142L116 141M184 141L184 142L187 142L184 141M197 141L197 142L202 142L197 141M96 142L96 143L99 143L96 142M121.667 142.333L122.333 142.667L121.667 142.333M180.667 142.333L181.333 142.667L180.667 142.333M205 142L205 143L208 143L205 142M217 142L218 143L217 142M82 143L82 144L85 144L82 143M90 143L90 144L94 144L90 143M125 143L126 144L125 143M177.667 143.333L178.333 143.667L177.667 143.333M210 143L210 144L213 144L210 143M219 143L219 144L222 144L219 143M128 144L129 145L128 144M174.667 144.333L175.333 144.667L174.667 144.333M130 145L131 146L130 145M172.667 145.333L173.333 145.667L172.667 145.333M132 146L133 147L132 146M170.667 146.333L171.333 146.667L170.667 146.333M133.667 147.333L134.333 147.667L133.667 147.333M169 147L170 148L169 147M135 148L136 149L135 148M168 148L169 149L168 148M167.333 149.667L167.667 150.333L167.333 149.667M136 150L137 151L136 150M137 152L138 153L137 152M166 152L167 153L166 152M138 153L139 154L138 153M165.333 154.667L165.667 155.333L165.333 154.667M139 155L140 156L139 155M140.333 156.667L140.667 157.333L140.333 156.667M164.333 157.667L164.667 158.333L164.333 157.667M141.333 158.667L141.667 159.333L141.333 158.667M163 159L163 171L164 171L163 159M142 160L143 161L142 160M143.333 162.667L143.667 163.333L143.333 162.667M144 165L144 168L145 168L144 165M145 169L145 173L146 173L145 169M164 172L164 175L165 175L164 172M146 177L146 181L147 181L146 177M165.333 177.667L165.667 178.333L165.333 177.667M166.333 180.667L166.667 181.333L166.333 180.667M167.333 182.667L167.667 183.333L167.333 182.667M145 185L144 195L145 195L145 185M168 185L169 186L168 185M169 186L170 187L169 186M170 188L171 189L170 188M171 189L172 190L171 189M175 194L176 195L175 194M143 196L143 200L144 200L143 196M177 196L178 197L177 196M142 200L142 203L143 203L142 200M182 200L183 201L182 200M183 201L184 202L183 201M184 202L185 203L184 202M185 203L186 204L185 203M141 204L141 207L142 207L141 204M187 204L188 205L187 204M188 205L189 206L188 205M189 206L190 207L189 206M140.333 207.667L140.667 208.333L140.333 207.667M190 207L191 208L190 207M191 208L192 209L191 208M139.333 209.667L139.667 210.333L139.333 209.667M192 210L193 211L192 210M304 210L304 211L310 211L304 210M311 210L311 211L318 211L311 210M320 210L321 211L320 210M138.333 211.667L138.667 212.333L138.333 211.667M193 211L194 212L193 211M300.667 211.333L301.333 211.667L300.667 211.333M322 211L323 212L322 211M194 212L195 213L194 212M298 212L299 213L298 212M324.667 212.333L325.333 212.667L324.667 212.333M137.333 213.667L137.667 214.333L137.333 213.667M296 213L297 214L296 213M327 213L328 214L327 213M195 214L196 215L195 214M294 214L295 215L294 214M329.667 214.333L330.333 214.667L329.667 214.333M136 215L135 218L136 215M196 215L197 216L196 215M292 215L293 216L292 215M332 215L333 216L332 215M290 216L291 217L290 216M334 216L335 217L334 216M197 217L198 218L197 217M289 217L290 218L289 217M336 217L337 218L336 217M134 218L135 219L134 218M288 218L289 219L288 218M338 218L339 219L338 218M133 219L132 222L133 219M198 219L199 220L198 219M286 219L287 220L286 219M340 219L341 220L340 219M199 220L199 223L201 222L201 221L199 220M285 220L286 221L285 220M341 220L342 221L341 220M284 221L285 222L284 221M343 221L344 222L343 221M131 222L130 225L131 222M344 222L345 223L344 222M201.333 223.667L201.667 224.333L201.333 223.667M283 223L284 224L283 223M306 223L306 224L309 224L306 223M315 223L315 224L319 224L315 223M346 223L347 224L346 223M282 224L283 225L282 224M301 224L301 225L304 225L301 224M321.667 224.333L322.333 224.667L321.667 224.333M347 224L348 225L347 224M129 225L130 226L129 225M281 225L282 226L281 225M299 225L300 226L299 225M325 225L326 226L325 225M348 225L349 226L348 225M128.333 226.667L128.667 227.333L128.333 226.667M202.333 226.667L202.667 227.333L202.333 226.667M297 226L298 227L297 226M327.667 226.333L328.333 226.667L327.667 226.333M280 227L281 228L280 227M295 227L296 228L295 227M330 227L331 228L330 227M127 228L128 229L127 228M294 228L295 229L294 228M332 228L333 229L332 228M352 228L353 229L352 228M126.333 229.667L126.667 230.333L126.333 229.667M203.333 229.667L203.667 230.333L203.333 229.667M279 229L280 230L279 229M292 229L293 230L292 229M334 229L335 230L334 229M353 229L354 230L353 229M291 230L292 231L291 230M336 230L337 231L336 230M354 230L355 231L354 230M125 231L125 234L126 234L125 231M278 231L279 232L278 231M290 231L291 232L290 231M355 231L356 232L355 231M199 232L200 233L199 232M201.333 232.667L201.667 233.333L201.333 232.667M203 232L205 234L205 232L203 232M339 232L340 233L339 232M277.333 233.667L277.667 234.333L277.333 233.667M341 233L342 234L341 233M124 234L124 237L125 237L124 234M205 234L206 235L205 234M288 234L289 235L288 234M342 234L343 235L342 234M200 235L200 238L201 238L202 235L200 235M287 235L288 236L287 235M345 236L346 237L345 236M123 237L123 241L124 241L123 237M276 237L276 240L277 240L276 237M286 237L287 238L286 237M348 238L349 239L348 238M285.333 239.667L285.667 240.333L285.333 239.667M349 239L350 240L349 239M365 241L366 242L365 241M122 242L122 264L123 264L122 242M275 242L275 247L276 247L275 242M366 242L367 243L366 242M284.333 243.667L284.667 244.333L284.333 243.667M367 243L368 244L367 243M199 245L199 249L200 249L199 245M318.333 245.667L318.667 246.333L318.333 245.667M319.333 247.667L319.667 248.333L319.333 247.667M342 247L344 249L344 247L342 247M370 247L371 248L370 247M283 248L283 259L284 259L283 248M335 248L335 249L338 249L335 248M371 248L372 249L371 248M317.333 249.667L317.667 250.333L317.333 249.667M332.667 249.333L333.333 249.667L332.667 249.333M342 249L343 250L342 249M329.667 250.333L330.333 250.667L329.667 250.333M360 250L361 251L360 250M123 251L124 252L123 251M200 251L200 255L201 255L200 251M274 251L274 256L275 256L274 251M326.667 251.333L327.333 251.667L326.667 251.333M361 251L362 252L361 251M373 251L374 252L373 251M324.667 252.333L325.333 252.667L324.667 252.333M362 252L363 253L362 252M374 252L375 253L374 252M124 253L124 257L125 257L124 253M316 253L316 256L317 256L316 253M322 253L323 254L322 253M338 253L339 254L338 253M363 253L364 254L363 253M310 254L311 255L310 254M320 254L321 255L320 254M337 254L338 255L337 254M375 254L376 255L375 254M309.333 256.667L309.667 257.333L309.333 256.667M315.333 256.667L315.667 257.333L315.333 256.667M336 256L337 257L336 256M365 256L366 257L365 256M201 257L201 260L202 260L201 257M273 257L273 261L274 261L273 257M335 257L336 258L335 257M377 257L378 258L377 257M127 258L129 262L127 258M314 258L315 259L314 258M125.333 259.667L125.667 260.333L125.333 259.667M308 259L309 260L308 259M334 259L335 260L334 259M367 259L368 260L367 259M378 259L379 260L378 259M131 260L132 261L131 260M313 260L314 261L313 260M132 261L133 262L132 261M333 261L334 262L333 261M368 261L369 262L368 261M379 261L380 262L379 261M133 262L134 263L133 262M202 262L202 265L203 265L202 262M284 262L284 265L285 265L284 262M307 262L308 263L307 262M332 262L333 263L332 262M369 262L370 263L369 262M126.333 263.667L126.667 264.333L126.333 263.667M134 263L135 264L134 263M272 263L272 268L273 268L272 263M336 263L337 264L336 263M380 263L381 264L380 263M129 264L130 265L129 264M135 264L136 265L135 264M306 264L307 265L306 264M335 264L336 265L335 264M359.333 264.667L359.667 265.333L359.333 264.667M370 264L371 265L370 264M130 265L131 266L130 265M203.333 265.667L203.667 266.333L203.333 265.667M276 265L276 267L278 267L278 265L276 265M305.333 265.667L305.667 266.333L305.333 265.667M334 265L335 266L334 265M361 265L362 266L361 265M381 265L382 266L381 265M127 266L129 269L129 266L127 266M138 266L139 267L138 266M332 266L333 267L332 266M371 266L372 267L371 266M140 267L141 268L140 267M285 267L286 268L285 267M304.333 267.667L304.667 268.333L304.333 267.667M330 267L331 268L330 267M360 267L361 268L360 267M364 267L365 268L364 267M382 267L383 268L382 267M204 268L205 269L204 268M278 268L278 271L279 271L278 268M329 268L330 269L329 268M361 268L362 269L361 268M366 268L367 269L366 268M372 268L373 269L372 268M391.667 268.333L392.333 268.667L391.667 268.333M141 269L142 270L141 269M275 269L276 270L275 269M303.333 269.667L303.667 270.333L303.333 269.667M328 269L329 270L328 269M383 269L384 270L383 269M390 269L391 270L390 269M205.333 270.667L205.667 271.333L205.333 270.667M271 270L271 273L272 273L271 270M286 270L287 271L286 270M327 270L328 271L327 270M369 270L370 271L369 270M389 270L390 271L389 270M391 270L392 271L391 270M142 271L143 272L142 271M274 271L275 272L274 271M287 271L288 272L287 271M302 271L303 272L302 271M363 271L364 272L363 271M370 271L371 272L370 271M384.333 271.667L384.667 272.333L384.333 271.667M388 271L389 272L388 271M143 272L144 273L143 272M301 272L302 273L301 272M326 272L327 273L326 272M364 272L365 273L364 272M374 272L375 273L374 272M390.333 272.667L390.667 273.333L390.333 272.667M206 273L207 274L206 273M273 273L274 274L273 273M279.333 273.667L279.667 274.333L279.333 273.667M300 273L301 274L300 273M325 273L326 274L325 273M387.333 273.667L387.667 274.333L387.333 273.667M144 274L145 275L144 274M272 274L273 275L272 274M299 274L300 275L299 274M324 274L325 275L324 274M330 274L330 276L332 274L330 274M365 274L366 275L365 274M373 274L374 275L373 274M375 274L374 276L375 274M385 274L385 277L386 277L385 274M145 275L146 276L145 275M207.333 275.667L207.667 276.333L207.333 275.667M298 275L299 276L298 275M323 275L321 278L325 277L323 275M327 275L328 276L327 275M366 275L367 276L366 275z"/>
<path style="fill:#896f9b; stroke:none;" d="M375.333 275.667L375.667 276.333L375.333 275.667z"/>
<path style="fill:#615269; stroke:none;" d="M389.333 275.667L389.667 276.333L389.333 275.667M271 276L272 277L271 276M292 276L292 277L298 277L292 276z"/>
<path style="fill:#896f9b; stroke:none;" d="M323 276L324 277L323 276z"/>
<path style="fill:#615269; stroke:none;" d="M329 276L330 277L329 276M146 277L147 278L146 277M208.333 277.667L208.667 278.333L208.333 277.667M327 277L328 278L327 277M367 277L368 278L367 277M376 277L377 278L376 277M147 278L148 279L147 278M280.333 278.667L280.667 279.333L280.333 278.667M326 278L327 279L326 278M368 278L369 279L368 278M388 278L389 279L388 278M324 279L325 280L324 279M148 280L149 281L148 280M209 280L210 281L209 280M323 280L324 281L323 280M369 280L370 281L369 280M149 281L150 282L149 281M210 281L211 282L210 281M281.333 281.667L281.667 282.333L281.333 281.667M321 281L322 282L321 281M370.333 281.667L370.667 282.333L370.333 281.667M319 282L320 283L319 282M150 283L151 284L150 283M211 283L212 284L211 283M224 283L225 284L224 283M229 283L230 284L229 283M287 283L288 284L287 283M316.667 283.333L317.333 283.667L316.667 283.333M151 284L152 285L151 284M212.333 284.667L212.667 285.333L212.333 284.667M223 284L224 285L223 284M288 284L289 285L288 284M314 284L315 285L314 284M371 284L372 285L371 284M388 284L388 288L389 288L388 284M222 285L223 286L222 285M282.333 285.667L282.667 286.333L282.333 285.667M286 285L286 290L287 290L286 285M290 285L291 286L290 285M309.667 285.333L310.333 285.667L309.667 285.333M372 285L372 288L373 288L372 285M152 286L153 287L152 286M213 286L214 287L213 286M221 286L222 287L221 286M231 286L232 287L231 286M291 286L292 287L291 286M307 286L308 287L307 286M153 287L154 288L153 287M220 287L221 288L220 287M232 287L233 288L232 287M292 287L293 288L292 287M308 287L309 288L308 287M393 287L394 288L393 287M214 288L215 289L214 288M219 288L220 289L219 288M283.333 288.667L283.667 289.333L283.333 288.667M293 288L294 289L293 288M310.667 288.333L311.333 288.667L310.667 288.333M394 288L395 289L394 288M154 289L155 290L154 289M215 289L216 290L215 289M218 289L219 290L218 289M233 289L234 290L233 289M294.667 289.333L295.333 289.667L294.667 289.333M314.667 289.333L315.333 289.667L314.667 289.333M373.333 289.667L373.667 290.333L373.333 289.667M155 290L156 291L155 290M217 290L216 292L218 292L217 290M234 290L235 291L234 290M296 290L297 291L296 290M318.667 290.333L319.333 290.667L318.667 290.333M389 290L389 294L390 294L389 290M298 291L299 292L298 291M321 291L322 292L321 291M392.333 291.667L392.667 292.333L392.333 291.667M395 291L395 301L396 301L395 291M156 292L157 293L156 292M235 292L236 293L235 292M284 292L285 293L284 292M300.667 292.333L301.333 292.667L300.667 292.333M307 292L308 293L307 292z"/>
<path style="fill:#896f9b; stroke:none;" d="M308 292L309 293L308 292z"/>
<path style="fill:#615269; stroke:none;" d="M309 294L318 293C314.911 291.704 311.307 291.359 309 294M374 292L375 293L374 292M157 293L158 294L157 293M285 293L286 294L285 293M303 293L303 294L306 294L303 293M236 294L237 295L236 294M391.333 294.667L391.667 295.333L391.333 294.667M158 295L159 296L158 295M375.333 295.667L375.667 296.333L375.333 295.667M159 296L160 297L159 296M237 296L238 297L237 296M390.333 296.667L390.667 297.333L390.333 296.667M238 297L239 298L238 297M160 298L161 299L160 298M239 299L240 300L239 299M376 299L376 302L377 302L376 299M161 300L162 301L161 300M398 300L398 305L399 305L398 300M162 301L163 302L162 301M240 301L241 302L240 301M394 302L395 303L394 302M163 303L164 304L163 303M241 303L242 304L241 303M396 303L397 304L396 303M393 304L394 305L393 304M395.333 304.667L395.667 305.333L395.333 304.667M164 305L165 306L164 305M242 305L243 306L242 305M377 305L377 309L378 309L377 305M165 306L166 307L165 306M392 306L393 307L392 306M243 307L244 308L243 307M394 307L395 308L394 307M166 308L167 309L166 308M244.333 308.667L244.667 309.333L244.333 308.667M393.333 308.667L393.667 309.333L393.333 308.667M397 308L397 311L398 311L397 308M167 309L168 310L167 309M391 309L393 312L391 309M245 310L246 311L245 310M168 311L169 312L168 311z"/>
<path style="fill:#896f9b; stroke:none;" d="M391.333 311.667L391.667 312.333L391.333 311.667z"/>
<path style="fill:#615269; stroke:none;" d="M169.333 312.667L169.667 313.333L169.333 312.667M246 312L247 313L246 312M391 313L392 314L391 313M396 313L396 316L397 316L396 313M170.333 314.667L170.667 315.333L170.333 314.667M247 314L248 315L247 314M248 315L249 316L248 315M171.333 316.667L171.667 317.333L171.333 316.667M249 316L250 317L249 316M250 317L251 318L250 317M395.333 317.667L395.667 318.333L395.333 317.667M251.333 318.667L251.667 319.333L251.333 318.667M172 320L172 323L173 323L172 320M252 320L253 321L252 320M394.333 320.667L394.667 321.333L394.333 320.667M253 321L254 322L253 321M254 322L255 323L254 322M255 323L256 324L255 323M393 323L394 324L393 323M256 324L257 325L256 324M257 325L258 326L257 325M392 325L393 326L392 325M173 326L173 330L174 330L173 326M258 326L259 327L258 326M391 327L392 328L391 327M260 329L261 330L260 329M377 329L377 332L378 332L377 329M390 329L391 330L390 329M261 330L262 331L261 330M262.333 331.667L262.667 332.333L262.333 331.667M389.333 331.667L389.667 332.333L389.333 331.667M263.333 333.667L263.667 334.333L263.333 333.667M376.333 333.667L376.667 334.333L376.333 333.667M388.333 333.667L388.667 334.333L388.333 333.667M174 334L174 347L175 347L174 334M264.333 335.667L264.667 336.333L264.333 335.667M387 336L388 337L387 336M265.333 337.667L265.667 338.333L265.333 337.667M375 337L376 338L375 337M386.333 338.667L386.667 339.333L386.333 338.667M266.333 339.667L266.667 340.333L266.333 339.667M374 339L375 340L374 339M267.333 341.667L267.667 342.333L267.333 341.667M373 341L374 342L373 341M385 341L386 342L385 341M268.333 343.667L268.667 344.333L268.333 343.667M372 343L373 344L372 343M384 344L385 345L384 344M371 345L372 346L371 345M269 346L269 349L270 349L269 346M383 346L384 347L383 346M364 347L365 348L364 347M370 347L371 348L370 347M363 348L363 351L364 351L363 348M382 348L383 349L382 348M369 349L370 350L369 349M368 350L369 351L368 350M381 350L382 351L381 350M270 351L270 354L271 354L270 351M362 352L362 355L363 355L362 352M365 352L367 355L365 352M367 352L368 353L367 352M380 352L381 353L380 352M174 354L174 361L175 361L174 354M379 354L380 355L379 354M271 355L271 358L272 358L271 355M378.333 355.667L378.667 356.333L378.333 355.667M361 356L361 359L362 359L361 356M377 357L378 358L377 357M354 358L355 364L356 364L354 358M272 359L272 364L273 364L272 359M360.333 359.667L360.667 360.333L360.333 359.667M376 359L377 360L376 359M353 360L354 361L353 360M375 361L376 362L375 361M352 362L353 363L352 362M359 362L360 363L359 362M374 362L375 363L374 362M173 364L173 368L174 368L173 364M351.333 364.667L351.667 365.333L351.333 364.667M358 364L359 365L358 364M373 364L374 365L373 364M372 365L373 366L372 365M350.333 366.667L350.667 367.333L350.333 366.667M354 366L354 369L355 369L354 366M357 366L358 367L357 366M273 367L273 372L274 372L273 367M356 367L357 368L356 367M371 367L372 368L371 367M349.333 368.667L349.667 369.333L349.333 368.667M370 368L371 369L370 368M348.333 370.667L348.667 371.333L348.333 370.667M172 371L172 374L173 374L172 371M368 371L369 372L368 371M347 372L348 373L347 372M367 372L368 373L367 372M346 373L345 376L346 373M171 375L171 378L172 378L171 375M365 375L366 376L365 375M344 376L345 377L344 376M364 376L365 377L364 376M273 377L273 398L274 398L273 377M343 377L344 378L343 377M363 377L364 378L363 377M191 378L192 379L191 378M342 378L343 379L342 378M362 378L363 379L362 378M170.333 379.667L170.667 380.333L170.333 379.667z"/>
<path style="fill:#896f9b; stroke:none;" d="M190 379L183 404C187.746 402.172 196.857 402.358 200.471 399.142C206.057 394.17 195.027 380.487 190 379z"/>
<path style="fill:#615269; stroke:none;" d="M193 379L194 380L193 379M189 380L190 381L189 380M194 380L195 381L194 380M340 380L341 381L340 380M339 381L340 382L339 381M169 382L170 383L169 382M195 382L196 383L195 382M337 382L338 383L337 382M188.333 383.667L188.667 384.333L188.333 383.667M336 383L337 384L336 383M168.333 384.667L168.667 385.333L168.333 384.667M196 384L197 385L196 384M320 384L321 385L320 384M334.667 384.333L335.333 384.667L334.667 384.333M197 385L198 386L197 385M319 385L320 386L319 385M332.667 385.333L333.333 385.667L332.667 385.333M355 385L356 386L355 385M167 386L168 387L167 386M187.333 386.667L187.667 387.333L187.333 386.667M318 386L319 387L318 386M320.333 386.667L320.667 387.333L320.333 386.667M330.667 386.333L331.333 386.667L330.667 386.333M354 386L355 387L354 386M198 387L199 388L198 387M317 387L318 388L317 387M328.667 387.333L329.333 387.667L328.667 387.333M353 387L354 388L353 387M166 388L167 389L166 388M316 388L317 389L316 388M326 388L327 389L326 388M352 388L353 389L352 388M186 389L186 392L187 392L186 389M199 389L200 390L199 389M307 389L308 390L307 389M315 389L316 390L315 389M319 389L320 390L319 389M324 389L325 390L324 389M165.333 390.667L165.667 391.333L165.333 390.667M200.333 390.667L200.667 391.333L200.333 390.667M305 390L306 391L305 390M314 390L315 391L314 390M318 390L321 392L321 391L318 390M322 390L323 391L322 390M349 390L350 391L349 390M304 391L305 392L304 391M307 391L308 392L307 391M313 391L314 392L313 391M348 391L349 392L348 391M164 392L165 393L164 392M201 392L202 393L201 392M303 392L304 393L303 392M311.667 392.333L312.333 392.667L311.667 392.333M185.333 393.667L185.667 394.333L185.333 393.667M301.667 393.333L302.333 393.667L301.667 393.333M306 393L307 394L306 393M310 393L311 394L310 393M345 393L346 394L345 393M163 394L164 395L163 394M202 394L203 395L202 394M300 394L301 395L300 394M305 394L306 395L305 394M309 394L310 395L309 394M162.333 395.667L162.667 396.333L162.333 395.667M298.667 395.333L299.333 395.667L298.667 395.333M304 395L305 396L304 395M307 395L308 396L307 395M342 395L343 396L342 395M184.333 396.667L184.667 397.333L184.333 396.667M202.333 396.667L202.667 397.333L202.333 396.667M295 398L298 396L295 398M303.333 396.667L303.667 397.333L303.333 396.667M306 396L307 397L306 396M161 397L160 400L161 397M339 397L340 398L339 397M274 398L275 399L274 398M293.667 398.333L294.333 398.667L293.667 398.333M337 398L338 399L337 398M183 399L183 403L184 403L183 399M201 399L202 400L201 399M275 399L276 400L275 399M290 399L290 400L293 400L290 399M335 399L336 400L335 399M154 404L160 400L154 404M198 400L198 401L201 401L198 400M277 400L278 401L277 400M287 400L287 401L290 401L287 400M334 400L335 401L334 400M189 401L189 402L193 402L189 401M282 401L283 402L282 401M284 401L285 402L284 401M332 401L333 402L332 401M186 402L187 403L186 402M330 402L331 403L330 402M184 403L185 404L184 403M328 403L329 404L328 403M153 404L154 405L153 404M325.667 404.333L326.333 404.667L325.667 404.333M151.667 405.333L152.333 405.667L151.667 405.333M323 405L324 406L323 405M150 406L151 407L150 406M321 406L322 407L321 406M149 407L150 408L149 407M319 407L320 408L319 407M145 408L145 409L148 409L145 408M317 408L318 409L317 408M139 409L139 410L143 410L139 409M177 409L178 410L177 409M314 409L315 410L314 409M138 410L139 411L138 410M175 410L173 411L173 412L175 410M311.667 410.333L312.333 410.667L311.667 410.333M137 411L137 414L138 414L137 411M308.667 411.333L309.333 411.667L308.667 411.333M305 412L306 413L305 412M301.667 413.333L302.333 413.667L301.667 413.333M136.333 414.667L136.667 415.333L136.333 414.667M296 414L296 415L299 415L296 414M291.667 415.333L292.333 415.667L291.667 415.333M170 416L170 419L171 419L170 416M285 416L285 417L288 417L285 416M135.333 417.667L135.667 418.333L135.333 417.667z"/>
<path style="fill:#896f9b; stroke:none;" d="M147 417L148 418L147 417z"/>
<path style="fill:#615269; stroke:none;" d="M173 417L174 418L173 417M258 417L258 419L260 417L258 417M262 417L262 418L276 418L262 417M137 418L138 419L137 418M146 418L148 421L146 418z"/>
<path style="fill:#e0a958; stroke:none;" d="M147 418L148 419L147 418z"/>
<path style="fill:#896f9b; stroke:none;" d="M173.333 418.667L173.667 419.333L173.333 418.667z"/>
<path style="fill:#615269; stroke:none;" d="M136.333 419.667L136.667 420.333L136.333 419.667M138 419L137 423L138 423L138 419z"/>
<path style="fill:#896f9b; stroke:none;" d="M147 419L148 420L147 419z"/>
<path style="fill:#615269; stroke:none;" d="M174 419L172 424L252 424L252 423C227.592 423 197.73 427.65 174 422L174 419M257 420L258 421L257 420z"/>
<path style="fill:#896f9b; stroke:none;" d="M147 421L148 422L147 421z"/>
<path style="fill:#615269; stroke:none;" d="M139 422L140 423L139 422M147 422L148 423L147 422M256 422L257 423L256 422M149 423L150 424L149 423z"/>
</svg>
