<?xml version="1.0" standalone="no"?>
<!DOCTYPE svg PUBLIC "-//W3C//DTD SVG 20010904//EN"
 "http://www.w3.org/TR/2001/REC-SVG-20010904/DTD/svg10.dtd">
<svg version="1.0" xmlns="http://www.w3.org/2000/svg"
 width="456" height="456" viewBox="0 0 456 456"
 preserveAspectRatio="xMidYMid meet">
<metadata>
Created by potrace 1.16, written by Peter Selinger 2001-2019
</metadata>
<g transform="translate(0,456) scale(0.08,-0.08)" 
fill="#000000" stroke="none">
<path d="M817 4183 c-3 -27 -13 -82 -22 -123 -9 -41 -17 -116 -18 -167 0 -76
3 -96 18 -113 10 -11 24 -20 30 -20 7 0 23 -8 36 -19 29 -23 23 -38 -48 -132
-28 -36 -64 -101 -82 -145 -18 -43 -47 -94 -64 -111 -38 -40 -18 -44 36 -7 57
38 57 21 0 -35 -35 -36 -63 -54 -96 -62 -51 -14 -53 -29 -4 -29 18 0 43 -3 57
-7 l25 -7 -30 -7 -30 -6 28 -11 c16 -7 66 -15 113 -18 47 -4 87 -11 90 -16 3
-4 -4 -8 -15 -8 -11 0 -22 -4 -25 -9 -10 -16 48 -17 139 -4 139 21 257 14 331
-20 56 -26 64 -34 101 -100 52 -92 66 -143 66 -242 -1 -140 -51 -303 -121
-392 -57 -73 -83 -125 -102 -201 -21 -82 -27 -226 -10 -252 7 -11 10 6 11 55
l1 70 14 -68 c8 -37 20 -80 26 -95 11 -26 12 -26 16 -4 2 12 8 20 13 17 5 -4
9 8 9 25 l0 31 45 -38 c30 -25 88 -102 164 -218 188 -287 196 -303 211 -421
16 -128 8 -375 -15 -459 -9 -33 -37 -99 -63 -147 -39 -76 -55 -95 -111 -137
-42 -31 -83 -52 -111 -58 -37 -7 -48 -15 -64 -44 -23 -43 -16 -86 18 -98 12
-5 282 -10 600 -10 l577 -1 16 28 17 29 135 6 c156 7 262 25 382 66 102 34
267 115 351 172 157 106 313 311 397 521 16 40 45 107 64 148 48 104 87 283
57 265 -6 -4 -22 -27 -35 -53 -26 -47 -24 -20 1 30 16 31 18 126 4 148 -9 13
-11 13 -20 0 -5 -8 -10 -25 -10 -37 0 -50 -17 -27 -27 38 -10 64 -9 74 13 131
28 72 27 68 13 68 -14 0 -48 -41 -49 -60 0 -8 -17 19 -36 60 -73 155 -172 284
-297 389 -104 87 -147 113 -255 157 -83 34 -92 35 -182 32 -79 -4 -104 -9
-148 -31 -110 -57 -172 -140 -192 -257 -26 -157 -57 -375 -53 -380 7 -7 42 42
49 68 9 33 21 27 28 -15 8 -44 56 -213 64 -228 8 -12 20 30 21 73 l1 33 53
-39 c28 -22 69 -45 89 -51 34 -11 121 -9 188 5 32 7 15 17 -58 34 -65 15 -73
26 -25 35 55 10 213 93 213 111 0 7 -43 0 -75 -12 -30 -12 40 66 82 90 37 23
42 36 13 36 -19 0 -19 2 7 43 15 23 43 59 62 81 l36 38 -50 -6 c-55 -8 -135
-31 -177 -53 l-28 -14 0 40 c0 63 -16 56 -35 -14 -9 -35 -25 -71 -36 -81 -18
-17 -19 -16 -20 27 0 40 -1 42 -11 19 -65 -155 -105 -210 -149 -210 -60 0 -99
71 -107 196 -8 142 40 244 142 296 57 30 174 36 252 13 143 -41 327 -182 424
-325 34 -50 90 -152 90 -164 0 -3 -14 8 -31 24 -34 30 -128 85 -135 78 -2 -3
17 -33 42 -69 119 -168 158 -307 144 -524 -6 -107 -8 -114 -55 -205 l-49 -94
-9 33 c-11 43 -19 32 -46 -55 -11 -40 -30 -82 -40 -95 l-20 -24 6 37 c3 20 2
45 -1 55 -6 14 -18 -3 -53 -70 -59 -114 -107 -162 -213 -213 -47 -23 -86 -40
-88 -39 -1 1 2 15 8 30 6 15 9 30 6 32 -2 3 -38 -23 -78 -56 -80 -66 -102 -76
-69 -35 45 57 21 58 -59 3 -107 -73 -195 -96 -246 -63 -24 16 -24 18 -24 168
1 283 -49 448 -184 601 -33 38 -67 76 -75 85 -7 8 -41 68 -76 132 -99 186
-128 215 -171 167 -10 -12 -31 -30 -45 -40 l-26 -19 -35 58 c-52 87 -96 198
-113 287 -17 93 -20 179 -5 170 6 -4 10 9 10 32 1 35 2 37 15 19 24 -32 25
-13 3 49 -26 71 -103 190 -150 231 -18 16 -69 65 -114 109 -65 64 -85 92 -103
139 -35 95 -38 172 -10 252 24 67 24 68 89 98 61 29 72 31 175 30 61 0 153 -3
205 -8 87 -6 93 -6 70 8 -31 18 -21 22 79 30 88 8 121 15 121 27 0 5 -12 9
-27 10 l-28 1 25 8 c14 4 42 8 63 9 45 1 49 16 6 25 -44 9 -95 42 -126 82 -31
41 -25 54 14 27 15 -11 39 -26 53 -33 23 -11 22 -9 -7 21 -17 19 -48 72 -67
119 -22 51 -58 113 -92 154 -67 85 -69 111 -10 141 21 11 43 31 48 45 14 37 2
213 -22 304 -11 43 -20 89 -20 102 0 38 -13 28 -39 -28 -17 -37 -57 -86 -130
-160 -58 -58 -118 -125 -134 -147 -27 -41 -27 -41 -60 -28 -71 31 -134 76
-172 124 -45 58 -60 66 -51 27 4 -15 9 -40 12 -58 5 -30 5 -30 -11 -11 -10 11
-23 34 -30 50 -13 30 -14 30 -22 7 l-9 -23 -22 31 c-12 16 -26 30 -30 30 -4 0
-15 -15 -26 -33 -17 -29 -19 -30 -26 -12 -6 17 -10 14 -31 -25 -20 -38 -24
-41 -27 -23 -2 12 1 38 7 57 5 20 6 36 1 36 -4 0 -25 -24 -47 -52 -31 -41 -59
-63 -120 -95 -44 -24 -83 -43 -87 -43 -4 0 -19 20 -34 44 -16 24 -73 89 -128
143 -66 65 -110 117 -129 155 -17 32 -33 58 -36 58 -4 0 -9 -21 -12 -47z m303
-544 c93 -22 96 -24 154 -83 94 -98 133 -116 154 -73 9 19 11 16 11 -25 1 -57
1 -57 -98 -23 -92 31 -130 55 -174 108 -20 24 -62 58 -96 76 -54 29 -96 62
-60 48 8 -3 57 -15 109 -28z m910 20 c-8 -5 -36 -21 -61 -34 -25 -13 -75 -53
-111 -88 -56 -55 -76 -68 -152 -95 -48 -18 -93 -32 -100 -32 -17 0 -24 27 -16
65 6 28 7 29 14 8 15 -45 55 -26 152 73 57 57 65 61 140 78 43 10 88 22 99 26
11 5 27 9 35 9 13 1 13 0 0 -10z m-56 -2966 c66 -113 62 -126 -39 -138 -33 -4
-68 -12 -77 -17 -23 -12 -23 -7 8 104 29 103 40 128 54 128 5 0 30 -35 54 -77z"/>
</g>
</svg>
